# xmcd
#
# Track frame offsets:
# 150
# 15941
# 30750
# 46228
# 60386
# 79496
# 97496
# 118601
# 139657
# 156267
# 172572
# 189079
#
# Disc length: 2701 seconds
#
#
# Revision: 54
# Processed by: cddbd v1.5.2PL0 Copyright (c) Steve Scherf et al.
# Submitted via: FreeRIP 2.951 
#
DISCID=860a8b0c
DTITLE=Katie Melua - Piece by Piece
DYEAR=2005
DGENRE=Vocal
TTITLE0=Shy Boy
TTITLE1=Nine Million Bicycles
TTITLE2=Piece by Piece
TTITLE3=Halfway up the Hindu Kush
TTITLE4=Blues in the Night
TTITLE5=Spider's Web
TTITLE6=Blue Shoes
TTITLE7=On the Road Again
TTITLE8=Thank You, Stars
TTITLE9=Just Like Heaven
TTITLE10=I Cried for You
TTITLE11=I Do Believe in Love
EXTD=YEAR: 2005
EXTT0=
EXTT1=
EXTT2=
EXTT3=
EXTT4=
EXTT5=
EXTT6=
EXTT7=
EXTT8=
EXTT9=
EXTT10=
EXTT11=
PLAYORDER=
